<svg width="26" height="26" viewBox="0 0 26 26" fill="none" xmlns="http://www.w3.org/2000/svg">
<g id="&#208;&#161;&#209;&#130;&#209;&#128;&#208;&#190;&#208;&#184;&#209;&#130;&#208;&#181;&#208;&#187;&#209;&#140;&#209;&#129;&#209;&#130;&#208;&#178;&#208;&#190;">
<path id="Vector" d="M17 16.0151H9V19.0101H17V16.0151Z" fill="#F0BA4E" stroke="black" stroke-miterlimit="10" stroke-linejoin="round"/>
<path id="Vector_2" d="M13 19.01H5V22.005H13V19.01Z" stroke="black" stroke-miterlimit="10" stroke-linejoin="round"/>
<path id="Vector_3" d="M21 19.01H13V22.005H21V19.01Z" stroke="black" stroke-miterlimit="10" stroke-linejoin="round"/>
<path id="Vector_4" d="M9 22.0051H1V25.0001H9V22.0051Z" stroke="black" stroke-miterlimit="10" stroke-linejoin="round"/>
<path id="Vector_5" d="M17 22.0051H9V25.0001H17V22.0051Z" stroke="black" stroke-miterlimit="10" stroke-linejoin="round"/>
<path id="Vector_6" d="M25 22.0051H17V25.0001H25V22.0051Z" stroke="black" stroke-miterlimit="10" stroke-linejoin="round"/>
<path id="Vector_7" d="M13.0059 6.69451C12.3719 6.69451 11.8579 6.18136 11.8579 5.54842V2.14609C11.8579 1.51314 12.3719 1 13.0059 1C13.6399 1 14.1539 1.51314 14.1539 2.14609V5.54842C14.1519 6.18136 13.6399 6.69451 13.0059 6.69451Z" stroke="black" stroke-miterlimit="10" stroke-linejoin="round"/>
<path id="Vector_8" d="M13.0039 11.6483L13.0059 6.69458" stroke="black" stroke-miterlimit="10" stroke-linecap="round" stroke-linejoin="round"/>
<path id="Vector_9" d="M13.2702 14.9807L17.3242 9.53775C17.4882 9.31812 17.3302 9.00464 17.0562 9.00464H8.94622C8.67022 9.00464 8.51422 9.31812 8.67822 9.53775L12.7322 14.9807C12.8662 15.1604 13.1362 15.1604 13.2702 14.9807Z" stroke="black" stroke-miterlimit="10" stroke-linecap="round" stroke-linejoin="round"/>
</g>
</svg>
