<svg width="26" height="26" viewBox="0 0 26 26" fill="none" xmlns="http://www.w3.org/2000/svg">
<g id="&#208;&#173;&#208;&#187;&#208;&#181;&#208;&#186;&#209;&#130;&#209;&#128;&#208;&#184;&#208;&#186;&#208;&#176;">
<path id="Vector" d="M1 20.2998V23.7299C1 24.4319 1.61802 24.9979 2.38004 24.9979H11.6223C12.3843 24.9979 13.0004 24.4319 13.0004 23.7299V22.6479" stroke="black" stroke-miterlimit="10" stroke-linecap="round" stroke-linejoin="round"/>
<path id="Vector_2" d="M1 20.2999V10.3396L3.22007 8.5495L12.2663 1.25329C12.6844 0.919275 13.3024 0.915275 13.7244 1.24329L13.7364 1.25329L22.7767 8.5455C22.7847 8.55151 22.7907 8.5575 22.7987 8.56551L25.0007 10.3416V23.732C25.0007 24.434 24.3847 25 23.6227 25H16.6265" stroke="black" stroke-miterlimit="10" stroke-linecap="round" stroke-linejoin="round"/>
<path id="Vector_3" d="M17.3922 13.6937C17.3922 15.4037 16.3902 16.8818 14.9422 17.5698C14.3861 17.8338 13.7621 17.9818 13.1021 17.9818C12.4361 17.9818 11.8021 17.8298 11.24 17.5578C9.804 16.8638 8.81396 15.3937 8.81396 13.6937C8.81396 11.3236 10.734 9.40356 13.1041 9.40356C15.4722 9.40356 17.3922 11.3236 17.3922 13.6937Z" fill="#F0BA4E" stroke="black" stroke-miterlimit="10" stroke-linecap="round" stroke-linejoin="round"/>
<path id="Vector_4" d="M14.9423 17.5699V20.2539C14.9423 20.842 14.4643 21.32 13.8743 21.32H12.3063C11.7183 21.32 11.2402 20.842 11.2402 20.2539V17.5579C11.8023 17.8299 12.4363 17.9819 13.1023 17.9819C13.7603 17.9839 14.3843 17.8359 14.9423 17.5699Z" stroke="black" stroke-miterlimit="10" stroke-linecap="round" stroke-linejoin="round"/>
<path id="Vector_5" d="M14.1083 19.1619H11.2402" stroke="black" stroke-miterlimit="10" stroke-linecap="round" stroke-linejoin="round"/>
<path id="Vector_6" d="M6.97404 14.3838H5.75" stroke="black" stroke-miterlimit="10" stroke-linecap="round" stroke-linejoin="round"/>
<path id="Vector_7" d="M20.3086 14.3838H19.0825" stroke="black" stroke-miterlimit="10" stroke-linecap="round" stroke-linejoin="round"/>
<path id="Vector_8" d="M19.7285 10.4595L18.6685 11.0715" stroke="black" stroke-miterlimit="10" stroke-linecap="round" stroke-linejoin="round"/>
<path id="Vector_9" d="M14.1083 20.1438H11.2402" stroke="black" stroke-miterlimit="10" stroke-linecap="round" stroke-linejoin="round"/>
<path id="Vector_10" d="M7.5341 11.0156L6.41406 10.5156" stroke="black" stroke-miterlimit="10" stroke-linecap="round" stroke-linejoin="round"/>
<path id="Vector_11" d="M9.76001 8.3954L9.04199 7.40137" stroke="black" stroke-miterlimit="10" stroke-linecap="round" stroke-linejoin="round"/>
<path id="Vector_12" d="M16.4604 8.3875L17.1965 7.40747" stroke="black" stroke-miterlimit="10" stroke-linecap="round" stroke-linejoin="round"/>
<path id="Vector_13" d="M13.1025 7.65353V6.42749" stroke="black" stroke-miterlimit="10" stroke-linecap="round" stroke-linejoin="round"/>
<path id="Vector_14" d="M13.3221 11.9077L12.1221 13.9178H14.1081L13.0761 15.9018" stroke="black" stroke-miterlimit="10" stroke-linecap="round" stroke-linejoin="round"/>
</g>
</svg>
